<svg xmlns="http://www.w3.org/2000/svg" viewBox="0 0 64 64">
  <ellipse fill="rgba(20,14,10,0.26)" cx="32" cy="56" rx="13" ry="3"/>
  <path d="M44 8 L44 50" stroke="#6d4f33" stroke-width="2.4" stroke-linecap="round"/>
  <circle cx="44" cy="7" r="3.2" fill="none" stroke="#9a8f7a" stroke-width="2" />
  <circle cx="44" cy="7" r="1.4" fill="#7fae6a"/>
  <path d="M28 22 Q19 26 18.5 42 Q18 51 22 56 H42 Q46 51 45.5 42 Q45 26 36 22 Q32 20 28 22 Z" fill="#3b2d45" stroke="#241b16" stroke-width="1.5" stroke-linejoin="round" stroke-linecap="round"/>
  <path d="M32 24 V56 M24 32 Q23 46 23 55 M40 32 Q41 46 41 55" stroke="#241b16" stroke-width="1.1" fill="none"/>
  <path d="M27 28 L36 26.5" stroke="#7c1b2b" stroke-width="2" stroke-linecap="round"/>
  <path d="M37 30 L40 38" stroke="#241b16" stroke-width="3.4" fill="none" stroke-linecap="round"/>
  <path d="M37 30 L40 38" stroke="#9a8f7a" stroke-width="1.8" fill="none" stroke-linecap="round"/>
  <path d="M27 28 L24 36" stroke="#241b16" stroke-width="3.4" fill="none" stroke-linecap="round"/>
  <path d="M27 28 L24 36" stroke="#9a8f7a" stroke-width="1.8" fill="none" stroke-linecap="round"/>
  <path d="M26 17 Q26 9 32 9 Q38 9 38 17 L37.5 21 Q32 19 26.5 21 Z" fill="#3b2d45" stroke="#241b16" stroke-width="1.5" stroke-linejoin="round" stroke-linecap="round"/>
  <circle cx="32" cy="16" r="5.4" fill="#ddd2b8" stroke="#241b16" stroke-width="1.5" stroke-linejoin="round" stroke-linecap="round"/>
  <ellipse cx="29.8" cy="15.4" rx="1.5" ry="1.8" fill="#241b16"/>
  <ellipse cx="34.2" cy="15.4" rx="1.5" ry="1.8" fill="#241b16"/>
  <path d="M32 17.5 L31 19.5 H33 Z" fill="#241b16"/>
  <path d="M29.5 20.4 H34.5 L33.8 22.4 H30.2 Z" fill="#ddd2b8" stroke="#241b16" stroke-width="1.2" stroke-linejoin="round" stroke-linecap="round"/>
</svg>
