<svg xmlns="http://www.w3.org/2000/svg" viewBox="0 0 64 64">
  <ellipse fill="rgba(20,14,10,0.26)" cx="31" cy="56" rx="16" ry="3"/>
  <path d="M22 44 L20 54.5 L26 54.5 L26.5 45 Z" fill="#54381f" stroke="#241b16" stroke-width="1.5" stroke-linejoin="round" stroke-linecap="round"/>
  <path d="M35 45 L36 54.5 L42 54.5 L40 44 Z" fill="#54381f" stroke="#241b16" stroke-width="1.5" stroke-linejoin="round" stroke-linecap="round"/>
  <path d="M19 54.5 h8 v2.6 h-8 Z" fill="#241b16"/>
  <path d="M35 54.5 h8 v2.6 h-8 Z" fill="#241b16"/>
  <path d="M18 27 Q19 18 31 18 Q43 18 44 28 L43 46 Q31 50 19 46 Z" fill="#9c8a6e" stroke="#241b16" stroke-width="1.5" stroke-linejoin="round" stroke-linecap="round"/>
  <path d="M24 22 Q31 26 38 22 L37 33 Q31 36 25 33 Z" fill="#7d6d54" stroke="#241b16" stroke-width="1.5" stroke-linejoin="round" stroke-linecap="round"/>
  <path d="M19 28 L11 38 L13 44" stroke="#9c8a6e" stroke-width="5" fill="none" stroke-linecap="round"/>
  <path d="M19 28 L11 38 L13 44" stroke="#241b16" stroke-width="1.5" fill="none" stroke-linecap="round"/>
  <circle cx="13.5" cy="45" r="3" fill="#9c8a6e" stroke="#241b16" stroke-width="1.5" stroke-linejoin="round" stroke-linecap="round"/>
  <path d="M43 28 L50 24" stroke="#9c8a6e" stroke-width="5" stroke-linecap="round"/>
  <path d="M43 28 L50 24" stroke="#241b16" stroke-width="1.5" stroke-linecap="round"/>
  <circle cx="51" cy="23" r="3.2" fill="#9c8a6e" stroke="#241b16" stroke-width="1.5" stroke-linejoin="round" stroke-linecap="round"/>
  <path d="M49 23 L46 6" stroke="#54381f" stroke-width="3.4" stroke-linecap="round"/>
  <path d="M44 7 H49 L48.5 2 H44.5 Z" fill="#6d4f33" stroke="#241b16" stroke-width="1.5" stroke-linejoin="round" stroke-linecap="round"/>
  <circle cx="31" cy="13.5" r="5.6" fill="#9c8a6e" stroke="#241b16" stroke-width="1.5" stroke-linejoin="round" stroke-linecap="round"/>
  <circle cx="28.8" cy="13" r="1.1" fill="#241b16"/>
  <circle cx="33.2" cy="13" r="1.1" fill="#241b16"/>
  <path d="M28 16.5 Q31 18.5 34 16.5" stroke="#241b16" stroke-width="1.4" fill="none" stroke-linecap="round"/>
  <path d="M28 16.5 L27.5 18.5 M34 16.5 L34.5 18.5" stroke="#cfd5da" stroke-width="1.4" stroke-linecap="round"/>
</svg>
