<svg xmlns="http://www.w3.org/2000/svg" viewBox="0 0 64 64">
  <ellipse fill="rgba(20,14,10,0.26)" cx="32" cy="56" rx="13" ry="3"/>
  <path d="M36.5 26 L44 20" stroke="#241b16" stroke-width="4" stroke-linecap="round"/>
  <path d="M36.5 26 L44 20" stroke="#ddd2b8" stroke-width="2.2" stroke-linecap="round"/>
  <path d="M44.5 20.5 L54.5 6.5" stroke="#241b16" stroke-width="1.2" stroke-linecap="round"/>
  <path d="M44.7 20.3 L54 7.2" stroke="#9a8f7a" stroke-width="2.6" stroke-linecap="round"/>
  <path d="M42 16.8 L48.2 22.4" stroke="#6b5d49" stroke-width="2.2" stroke-linecap="round"/>
  <circle cx="44.6" cy="20.2" r="1.8" fill="#ddd2b8" stroke="#241b16" stroke-width="1.5" stroke-linejoin="round" stroke-linecap="round"/>
  <path d="M27.5 27 L20.5 31" stroke="#241b16" stroke-width="4" stroke-linecap="round"/>
  <path d="M27.5 27 L20.5 31" stroke="#ddd2b8" stroke-width="2.2" stroke-linecap="round"/>
  <circle cx="19.5" cy="33" r="5.6" fill="#6d4f33" stroke="#241b16" stroke-width="1.5" stroke-linejoin="round" stroke-linecap="round"/>
  <circle cx="19.5" cy="33" r="2" fill="#241b16"/>
  <path d="M32 23.5 V38" stroke="#241b16" stroke-width="2.2" stroke-linecap="round"/>
  <g stroke="#241b16" stroke-width="3.2" fill="none" stroke-linecap="round">
    <path d="M32 26.5 Q26.5 27 25.5 30 M32 26.5 Q37.5 27 38.5 30"/>
    <path d="M32 30.5 Q26.5 31 25.5 34 M32 30.5 Q37.5 31 38.5 34"/>
    <path d="M32 34.5 Q27.5 35 26.8 37.4 M32 34.5 Q36.5 35 37.2 37.4"/>
  </g>
  <g stroke="#ddd2b8" stroke-width="1.7" fill="none" stroke-linecap="round">
    <path d="M32 26.5 Q26.5 27 25.5 30 M32 26.5 Q37.5 27 38.5 30"/>
    <path d="M32 30.5 Q26.5 31 25.5 34 M32 30.5 Q37.5 31 38.5 34"/>
    <path d="M32 34.5 Q27.5 35 26.8 37.4 M32 34.5 Q36.5 35 37.2 37.4"/>
  </g>
  <path d="M28.5 38 H35.5 L33.8 42 H30.2 Z" fill="#ddd2b8" stroke="#241b16" stroke-width="1.5" stroke-linejoin="round" stroke-linecap="round"/>
  <path d="M30.4 42 L28.4 47.5 L28.8 54.5 M33.6 42 L35.6 47.5 L35.2 54.5" stroke="#241b16" stroke-width="4.2" fill="none" stroke-linecap="round"/>
  <path d="M30.4 42 L28.4 47.5 L28.8 54.5 M33.6 42 L35.6 47.5 L35.2 54.5" stroke="#ddd2b8" stroke-width="2.4" fill="none" stroke-linecap="round"/>
  <path d="M28.8 54.5 l-3 1.4 M35.2 54.5 l3 1.4" stroke="#ddd2b8" stroke-width="2.4" stroke-linecap="round"/>
  <circle cx="32" cy="15.5" r="6" fill="#ddd2b8" stroke="#241b16" stroke-width="1.5" stroke-linejoin="round" stroke-linecap="round"/>
  <path d="M28.6 20.6 H35.4 L34.6 24 H29.4 Z" fill="#ddd2b8" stroke="#241b16" stroke-width="1.5" stroke-linejoin="round" stroke-linecap="round"/>
  <circle cx="29.6" cy="14.6" r="1.5" fill="#241b16"/>
  <circle cx="34.4" cy="14.6" r="1.5" fill="#241b16"/>
  <path d="M32 17 L31 19 H33 Z" fill="#241b16"/>
</svg>
