<svg xmlns="http://www.w3.org/2000/svg" viewBox="0 0 64 64">
  <ellipse fill="rgba(20,14,10,0.26)" cx="31" cy="56" rx="16" ry="3"/>
  <path d="M22 44 L20 54.5 L27 54.5 L27 45 Z" fill="#3f5240" stroke="#241b16" stroke-width="1.5" stroke-linejoin="round" stroke-linecap="round"/>
  <path d="M36 45 L36 54.5 L43 54.5 L41 44 Z" fill="#3f5240" stroke="#241b16" stroke-width="1.5" stroke-linejoin="round" stroke-linecap="round"/>
  <path d="M19 54.5 h9 v2.6 h-9 Z" fill="#241b16"/>
  <path d="M35 54.5 h9 v2.6 h-9 Z" fill="#241b16"/>
  <path d="M18 28 Q19 20 31 19.5 Q44 20 45 29 L43 46 Q31 50 19 46 Z" fill="#5d7355" stroke="#241b16" stroke-width="1.5" stroke-linejoin="round" stroke-linecap="round"/>
  <path d="M24 24 Q31 28 38 24 L37 37 Q31 40 25 37 Z" fill="#3f5240" stroke="#241b16" stroke-width="1.5" stroke-linejoin="round" stroke-linecap="round"/>
  <path d="M19 27 Q9 33 8 48" stroke="#5d7355" stroke-width="5" fill="none" stroke-linecap="round"/>
  <path d="M19 27 Q9 33 8 48" stroke="#241b16" stroke-width="1.5" fill="none" stroke-linecap="round"/>
  <path d="M8 48 L5 51 M8 48 L8 52 M8 48 L11 51" stroke="#cfd5da" stroke-width="2" stroke-linecap="round"/>
  <path d="M43 28 Q53 34 54 49" stroke="#5d7355" stroke-width="5" fill="none" stroke-linecap="round"/>
  <path d="M43 28 Q53 34 54 49" stroke="#241b16" stroke-width="1.5" fill="none" stroke-linecap="round"/>
  <path d="M54 49 L51 52 M54 49 L54 53 M54 49 L57 52" stroke="#cfd5da" stroke-width="2" stroke-linecap="round"/>
  <circle cx="31" cy="14" r="6" fill="#5d7355" stroke="#241b16" stroke-width="1.5" stroke-linejoin="round" stroke-linecap="round"/>
  <circle cx="28.6" cy="13.5" r="1.2" fill="#241b16"/>
  <circle cx="33.4" cy="13.5" r="1.2" fill="#241b16"/>
  <path d="M27 17.5 H35 L34 19.5 H28 Z" fill="#241b16" stroke="#241b16" stroke-width="1" stroke-linejoin="round"/>
  <path d="M28.5 17.5 L28 21.5 M34 17.5 L34.5 21.5" stroke="#cfd5da" stroke-width="1.6" stroke-linecap="round"/>
  <path d="M26 9 L24.5 5 L28 8 Z M36 9 L37.5 5 L34 8 Z" fill="#3f5240" stroke="#241b16" stroke-width="1.4" stroke-linejoin="round" stroke-linecap="round"/>
</svg>
