<svg xmlns="http://www.w3.org/2000/svg" viewBox="0 0 64 64">
  <ellipse fill="rgba(20,14,10,0.26)" cx="32" cy="59" rx="25" ry="4"/>
  <path d="M12 57 V26 H52 V57 Z" fill="#b9a98c" stroke="#241b16" stroke-width="2.2" stroke-linejoin="round" stroke-linecap="round"/>
  <path d="M12 26 h4 v-4 h4 v4 h4 v-4 h4 v4 h4 v-4 h4 v4 h4 v-4 h4 v4 H12 Z" fill="#9c8a6e" stroke="#241b16" stroke-width="2.2" stroke-linejoin="round" stroke-linecap="round"/>
  <path d="M24 57 V42 a8 8 0 0 1 16 0 V57 Z" fill="#3a2a1c" stroke="#241b16" stroke-width="2.2" stroke-linejoin="round" stroke-linecap="round"/>
  <path d="M24 42 a8 8 0 0 1 16 0 M32 42 V57" fill="none" stroke="#241b16" stroke-width="1.4"/>
  <path d="M16 30 L46 52" stroke="#aebdca" stroke-width="3.4" stroke-linecap="round"/>
  <path d="M16 30 L46 52" stroke="#241b16" stroke-width="1.2" stroke-linecap="round"/>
  <path d="M48 30 L18 52" stroke="#aebdca" stroke-width="3.4" stroke-linecap="round"/>
  <path d="M48 30 L18 52" stroke="#241b16" stroke-width="1.2" stroke-linecap="round"/>
  <path d="M14 33 L20 27 M44 27 L50 33" stroke="#d9ab3c" stroke-width="3.2" stroke-linecap="round"/>
  <path d="M14 33 L20 27 M44 27 L50 33" stroke="#241b16" stroke-width="1.1" stroke-linecap="round"/>
  <circle cx="32" cy="41" r="3" fill="#a32638" stroke="#241b16" stroke-width="1.4"/>
</svg>
