<svg xmlns="http://www.w3.org/2000/svg" viewBox="0 0 64 64">
  <ellipse fill="rgba(20,14,10,0.26)" cx="32" cy="58" rx="22" ry="4"/>
  <path d="M20 56 V22 h24 V56 Z" fill="#b9a98c" stroke="#241b16" stroke-width="2.2" stroke-linejoin="round" stroke-linecap="round"/>
  <path d="M20 20 h4 v-4 h4 v4 h4 v-4 h4 v4 h4 v-4 h4 v4 V22 H20 Z" fill="#9c8a6e" stroke="#241b16" stroke-width="2.2" stroke-linejoin="round" stroke-linecap="round"/>
  <path d="M21 22 H43" stroke="#241b16" stroke-width="1.5"/>
  <path d="M28 56 V44 a4 4 0 0 1 8 0 V56 Z" fill="#3a2a1c" stroke="#241b16" stroke-width="2.2" stroke-linejoin="round" stroke-linecap="round"/>
  <path d="M28 44 a4 4 0 0 1 8 0 M32 44 V56" fill="none" stroke="#241b16" stroke-width="1.4"/>
  <path d="M26 30 h5 v6 h-5 Z M33 30 h5 v6 h-5 Z" fill="#54381f" stroke="#241b16" stroke-width="1.4" stroke-linejoin="round"/>
  <path d="M22 16 q-4 -7 4 -10 q-1 4 -3 6 q5 -3 8 0 q-3 1 -5 3 q6 0 7 4 q-7 3 -11 2 Z" fill="#9c8a6e" stroke="#241b16" stroke-width="1.5" stroke-linejoin="round" stroke-linecap="round"/>
  <path d="M34 13 q1 -6 7 -8 q2 5 -1 9 q-3 2 -6 1 Z" fill="#b9a98c" stroke="#241b16" stroke-width="1.5" stroke-linejoin="round" stroke-linecap="round"/>
  <circle cx="40" cy="6" r="3.2" fill="#b9a98c" stroke="#241b16" stroke-width="1.5" stroke-linejoin="round" stroke-linecap="round"/>
  <path d="M42 4 L45 3 L42.5 6 Z" fill="#d9ab3c" stroke="#241b16" stroke-width="1.2" stroke-linejoin="round" stroke-linecap="round"/>
</svg>
