<svg xmlns="http://www.w3.org/2000/svg" viewBox="0 0 64 64">
  <ellipse fill="rgba(20,14,10,0.26)" cx="32" cy="58" rx="24" ry="4"/>
  <path d="M12 56 V30 h40 V56 Z" fill="#b9a98c" stroke="#241b16" stroke-width="2.2" stroke-linejoin="round" stroke-linecap="round"/>
  <path d="M12 28 h4 v-4 h4 v4 h4 v-4 h4 v4 h4 v-4 h4 v4 h4 v-4 h4 v4 h4 V30 H12 Z" fill="#9c8a6e" stroke="#241b16" stroke-width="2.2" stroke-linejoin="round" stroke-linecap="round"/>
  <path d="M13 30 H51" stroke="#241b16" stroke-width="1.5"/>
  <path d="M26 56 V42 a6 6 0 0 1 12 0 V56 Z" fill="#3a2a1c" stroke="#241b16" stroke-width="2.2" stroke-linejoin="round" stroke-linecap="round"/>
  <path d="M26 42 a6 6 0 0 1 12 0 M32 42 V56" fill="none" stroke="#241b16" stroke-width="1.4"/>
  <path d="M17 38 h6 v6 h-6 Z M41 38 h6 v6 h-6 Z" fill="#54381f" stroke="#241b16" stroke-width="1.5" stroke-linejoin="round"/>
  <path d="M44 30 L44 6 M44 6 h12 v8 h-12" fill="#a32638" stroke="#241b16" stroke-width="1.6" stroke-linejoin="round" stroke-linecap="round"/>
  <path d="M20 30 L20 16" stroke="#241b16" stroke-width="2.2" stroke-linecap="round"/>
  <path d="M20 16 L13 20 L20 24 Z" fill="#aebdca" stroke="#241b16" stroke-width="1.5" stroke-linejoin="round" stroke-linecap="round"/>
</svg>
