<svg xmlns="http://www.w3.org/2000/svg" viewBox="0 0 64 64">
  <ellipse fill="rgba(20,14,10,0.26)" cx="32" cy="59" rx="27" ry="4"/>
  <path d="M14 57 V28 H50 V57 Z" fill="#6b6660" stroke="#241b16" stroke-width="2.2" stroke-linejoin="round" stroke-linecap="round"/>
  <path d="M11 28 H53 V24 H11 Z" fill="#9a8f7a" stroke="#241b16" stroke-width="2.2" stroke-linejoin="round" stroke-linecap="round"/>
  <path d="M14 28 H50" stroke="#241b16" stroke-width="1.3"/>
  <path d="M27 24 V8 a5 5 0 0 1 10 0 V24 Z" fill="#3b2d45" stroke="#241b16" stroke-width="2.2" stroke-linejoin="round" stroke-linecap="round"/>
  <ellipse cx="32" cy="14" rx="3" ry="6" fill="#aebdca" opacity="0.7"/>
  <path d="M30 9 Q32 4 34 9 M29 6 Q32 1.5 35 6" fill="none" stroke="#aebdca" stroke-width="1.6" stroke-linecap="round" opacity="0.85"/>
  <path d="M22 57 V36 a4 4 0 0 1 8 0 V57 M34 57 V36 a4 4 0 0 1 8 0 V57" fill="#6b6660" stroke="#241b16" stroke-width="1.5" stroke-linejoin="round" stroke-linecap="round"/>
  <path d="M27 57 V42 a5 5 0 0 1 10 0 V57 Z" fill="#3b2d45" stroke="#241b16" stroke-width="2.2" stroke-linejoin="round" stroke-linecap="round"/>
  <ellipse cx="32" cy="48" rx="3.4" ry="5" fill="#ead9b5" opacity="0.85"/>
  <path d="M27 42 a5 5 0 0 1 10 0" fill="none" stroke="#241b16" stroke-width="1.5"/>
  <path d="M18 36 h6 v6 h-6 Z M40 36 h6 v6 h-6 Z" fill="#3b2d45" stroke="#241b16" stroke-width="1.5" stroke-linejoin="round"/>
  <path d="M21 36 v6 M18 39 h6 M43 36 v6 M40 39 h6" stroke="#241b16" stroke-width="1"/>
</svg>
