<svg xmlns="http://www.w3.org/2000/svg" viewBox="0 0 64 64">
  <ellipse fill="rgba(20,14,10,0.26)" cx="30" cy="58" rx="22" ry="4"/>
  <path d="M12 56 V32 H44 V56 Z" fill="#8a5a34" stroke="#241b16" stroke-width="2.2" stroke-linejoin="round" stroke-linecap="round"/>
  <path d="M18 56 V32 M28 56 V32 M38 56 V32" stroke="#54381f" stroke-width="1.5"/>
  <path d="M8 32 L28 18 L48 32 Z" fill="#6d4f33" stroke="#241b16" stroke-width="2.2" stroke-linejoin="round" stroke-linecap="round"/>
  <path d="M28 56 V42 a4 4 0 0 1 8 0 V56 Z" fill="#3a2a1c" stroke="#241b16" stroke-width="2.2" stroke-linejoin="round" stroke-linecap="round"/>
  <path d="M14 38 h7 v6 h-7 Z" fill="#d9ab3c" stroke="#241b16" stroke-width="1.4" stroke-linejoin="round"/>
  <path d="M17.5 38 V44 M14 41 H21" stroke="#241b16" stroke-width="1.2"/>
  <path d="M44 24 H56" stroke="#241b16" stroke-width="1.8" stroke-linecap="round"/>
  <path d="M53 24 V32" stroke="#54381f" stroke-width="1.6" stroke-linecap="round"/>
  <path d="M48 32 h10 v9 h-10 Z" fill="#ead9b5" stroke="#241b16" stroke-width="1.6" stroke-linejoin="round"/>
  <path d="M50 35 h4 v3 a2 2 0 0 1 -4 0 Z" fill="#d9ab3c" stroke="#241b16" stroke-width="1.2" stroke-linejoin="round"/>
  <path d="M54 35 h1.6 a1.4 1.4 0 0 1 0 2.8 H54 Z" fill="none" stroke="#241b16" stroke-width="1.2" stroke-linejoin="round"/>
</svg>
