<svg xmlns="http://www.w3.org/2000/svg" viewBox="0 0 64 64">
  <ellipse fill="rgba(20,14,10,0.26)" cx="32" cy="58" rx="18" ry="4"/>
  <path d="M20 56 H44 L40 50 H24 Z" fill="#9c8a6e" stroke="#241b16" stroke-width="2.2" stroke-linejoin="round" stroke-linecap="round"/>
  <path d="M25 50 H39 V44 H25 Z" fill="#b0a084" stroke="#241b16" stroke-width="2.2" stroke-linejoin="round" stroke-linecap="round"/>
  <path d="M32 6 L36 12 M32 6 L28 12 M22 14 L28 16 M42 14 L36 16 M24 26 L29 24 M40 26 L35 24" stroke="#d9ab3c" stroke-width="2" stroke-linecap="round"/>
  <path d="M27 22 Q22 22 22 28 Q22 36 32 42 Q42 36 42 28 Q42 22 37 22 Q33 22 32 26 Q31 22 27 22 Z" fill="#7a3d8f" stroke="#241b16" stroke-width="2.2" stroke-linejoin="round" stroke-linecap="round"/>
  <path d="M27 26 Q26 30 29 33" stroke="#b07fc4" stroke-width="2" fill="none" stroke-linecap="round"/>
  <circle cx="32" cy="30" r="3.2" fill="#d9ab3c" stroke="#241b16" stroke-width="1.5"/>
  <circle cx="31" cy="29" r="1" fill="#f3e0a0"/>
</svg>
