<svg xmlns="http://www.w3.org/2000/svg" viewBox="0 0 64 64">
  <ellipse fill="rgba(20,14,10,0.26)" cx="32" cy="58" rx="20" ry="4"/>
  <path d="M22 56 V18 Q22 8 32 8 Q42 8 42 18 V56 Z" fill="#9c8a6e" stroke="#241b16" stroke-width="2.2" stroke-linejoin="round" stroke-linecap="round"/>
  <path d="M22 26 Q32 30 42 26 Q42 20 42 18 Q42 8 32 8 Q22 8 22 18 Z" fill="#b0a084" stroke="#241b16" stroke-width="1.5" stroke-linejoin="round" stroke-linecap="round"/>
  <path d="M28 18 L36 18 M28 24 L36 24 M28 30 L36 30 M28 36 L36 36 M32 14 V40" stroke="#2a5d9c" stroke-width="2" stroke-linecap="round"/>
  <circle cx="32" cy="18" r="1.6" fill="#5b9be0"/>
  <circle cx="32" cy="30" r="1.6" fill="#5b9be0"/>
  <path d="M16 50 H22 M42 50 H48" stroke="#54381f" stroke-width="2.4" stroke-linecap="round"/>
  <path d="M48 12 L49 14.5 L51.5 15.5 L49 16.5 L48 19 L47 16.5 L44.5 15.5 L47 14.5 Z" fill="#5b9be0" stroke="#241b16" stroke-width="0.9" stroke-linejoin="round"/>
</svg>
